PathFileType	4	(X/Y/Z)	pose_F01_0-96.trc
DataRate	CameraRate	NumFrames	NumMarkers	Units	OrigDataRate	OrigDataStartFrame	OrigNumFrames
30	30	9	21	m	30	84	96
Frame#	Time	CHip			RHip			RKnee			RAnkle			RBigToe			RSmallToe			RHeel			LHip			LKnee			LAnkle			LBigToe			LSmallToe			LHeel			Neck			Nose			RShoulder			RElbow			RWrist			LShoulder			LElbow			LWrist			
		X1	Y1	Z1	X2	Y2	Z2	X3	Y3	Z3	X4	Y4	Z4	X5	Y5	Z5	X6	Y6	Z6	X7	Y7	Z7	X8	Y8	Z8	X9	Y9	Z9	X10	Y10	Z10	X11	Y11	Z11	X12	Y12	Z12	X13	Y13	Z13	X14	Y14	Z14	X15	Y15	Z15	X16	Y16	Z16	X17	Y17	Z17	X18	Y18	Z18	X19	Y19	Z19	X20	Y20	Z20	X21	Y21	Z21	
84	2.8	-0.20765279537190004	1.8907667762649878	-0.5119530149781824	-0.21797052805619968	1.8862712156006942	-0.44700787924887536	-0.2103922539127574	1.7415085936553871	-0.4163285932445179	-0.2117583512040945	1.599642859145004	-0.37824198300409284	-0.20637305569027128	1.6288868251163202	-0.38720568700827573	-0.20575722151463682	1.6363785049286097	-0.36092482427033706	-0.20738226726592562	1.5942926913944702	-0.38265376780177046	-0.19584387968037384	1.89552767510372	-0.5852230613206973	-0.18753986360074348	1.7490674459752964	-0.5718058610745624	-0.1818806216111739	1.5986569801306445	-0.5641357170734675	-0.2051495090479848	1.5497822928957248	-0.5469459416770076	-0.1986326114067277	1.5561797881661683	-0.5803951365403767	-0.174917215207588	1.587816142677102	-0.5571248586470389	-0.20372482876355827	2.048301146727405	-0.5040721947574788	-0.22688777257719409	2.111031965581197	-0.48501352434827694	-0.2145971514906165	2.0374502923680886	-0.409173681196973	-0.2145344900207634	1.9520691568581459	-0.3528615796893354	-0.22038873690537603	1.8797169308560364	-0.2817923802551849	-0.18853043185189114	2.0586341836603967	-0.6010426591352418	-0.17774566089626784	1.9800364685933192	-0.6608804547324171	-0.16944607597236314	1.9044499889171216	-0.714084042246013
85	2.8333333333333335	-0.20570870024504342	1.888288336000828	-0.5135662028027116	-0.21504884093539264	1.8836692249632263	-0.44553934769937814	-0.21021332793106012	1.7348282178799752	-0.4156024083275692	-0.20954545278091669	1.5999859044444493	-0.3811573655942833	-0.20637305569027128	1.6288868251163202	-0.38720568700827573	-0.20575722151463682	1.6363785049286097	-0.36092482427033706	-0.2068720575141889	1.5938664716802475	-0.38351916600039043	-0.19291704469220114	1.8954940935570195	-0.5841805422131964	-0.18448995510749042	1.7399309979766946	-0.5780732306805572	-0.18181358747949813	1.5946018592196207	-0.5639388957874019	-0.20592545285120167	1.5483700816903097	-0.5505678134573937	-0.19639533106521592	1.5549067023323242	-0.5829212726687681	-0.17608637642629163	1.5841519498376029	-0.5514596939279262	-0.2049901730315521	2.0445649811712063	-0.49833501998221724	-0.2269114103554355	2.1083048231899064	-0.4759722604215321	-0.21377933120476975	2.0322770666716146	-0.40489518171307687	-0.21524485987596917	1.947847433453426	-0.3460742440706777	-0.22912698808097073	1.8757019657470448	-0.29319833883777596	-0.1918235666304036	2.055959447270483	-0.5929567163001535	-0.17785267785274184	1.9796186890830434	-0.6514597484519083	-0.16738342484787772	1.9050316910351888	-0.6869747211594974
86	2.8666666666666667	-0.2035357304215702	1.889505837057212	-0.5159104713487322	-0.2130859505594143	1.8837257447421505	-0.4475880461921397	-0.20839482813918028	1.735975641320398	-0.4177915022398244	-0.20883178374208164	1.5991848091427001	-0.3772271918450164	-0.20637305569027128	1.6288868251163202	-0.38720568700827573	-0.20575722151463682	1.6363785049286097	-0.36092482427033706	-0.20716950686522254	1.5925860694039549	-0.38310699274005133	-0.19055659902422542	1.8954776074507895	-0.5863201218127385	-0.1842381651585436	1.7409399627938642	-0.5784651800517742	-0.18173303541131242	1.5973077195609688	-0.5642810715233137	-0.2047743102016511	1.5509466898899325	-0.547690574232775	-0.19624209302950985	1.5576268080839186	-0.5832452973324351	-0.1760762442061317	1.5869123509968597	-0.5517536988738735	-0.20883354531140935	2.0454436971814225	-0.49393063195090037	-0.23268436000120005	2.1085297587432867	-0.4696770624877849	-0.21739804708239688	2.033400616794134	-0.4005974325579571	-0.22043018553943783	1.9482349835362966	-0.3543713305171438	-0.23458665278065519	1.877407849355674	-0.3017607636470671	-0.19587937021547216	2.0581711191289944	-0.5882547344053274	-0.1790724525845559	1.9793750998659414	-0.6454964856156338	-0.1743233202818386	1.90384744316	-0.6622400953270894
87	2.9	-0.20143846791027215	1.8869807559688012	-0.5178494446926943	-0.21111879642722678	1.881175547967095	-0.4494187108836168	-0.20623536669318218	1.7372361763259014	-0.42036326328014223	-0.20966640520459473	1.5982642715968631	-0.3806386471788938	-0.20637305569027128	1.6288868251163202	-0.38720568700827573	-0.20575722151463682	1.6363785049286097	-0.36092482427033706	-0.20711304402207886	1.590387565597198	-0.38243744261873963	-0.18776234834955338	1.8916455701524777	-0.5850628317546639	-0.18353374763615674	1.7396579273778658	-0.5749138433595831	-0.18167198402055185	1.5973060437493478	-0.5644014330224219	-0.20718968991574563	1.5496314699273814	-0.5447822297781172	-0.198619853296087	1.5561618154889556	-0.5804084508367303	-0.1770080140252453	1.5877820164895586	-0.5549470842157073	-0.2098723260154295	2.044450207596992	-0.49699563093029686	-0.23673601938962824	2.109109438898387	-0.4743406362600846	-0.21669590155665738	2.0337473550579652	-0.40642521960781103	-0.22160879582663603	1.9458947607823744	-0.36542547155524086	-0.23837667169175503	1.8714471353405266	-0.32836088617218295	-0.19801413234097925	2.0569193887358286	-0.586285598157054	-0.18326934955947638	1.9776144997927327	-0.6404937222440241	-0.17837427363952355	1.897403079473337	-0.6536535802848874
88	2.933333333333333	-0.20084949225124052	1.884570049388621	-0.5143920230673623	-0.2102687095051882	1.8799366930738997	-0.44606214421972434	-0.2056208241783585	1.7318258085808875	-0.4160038798272127	-0.20868682189540394	1.6015601307138798	-0.3775054185780279	-0.20637305569027128	1.6288868251163202	-0.38720568700827573	-0.20575722151463682	1.6363785049286097	-0.36092482427033706	-0.20688602292190209	1.5918498454521826	-0.38286646412117636	-0.19007836415655247	1.8890503937780982	-0.5824625716928112	-0.1798873477776196	1.734901053271047	-0.5783182013071548	-0.18164944189638083	1.5972756254737	-0.5642474135048416	-0.2051909372619428	1.5497441905039377	-0.5470017178932548	-0.19661330933943613	1.5563136846815124	-0.5825963119496772	-0.17577161032961325	1.5861330251538575	-0.5517922662525889	-0.20892359919249276	2.0459959299902306	-0.5028384452734735	-0.23790842633926673	2.1083457158532695	-0.4783974348021614	-0.2176267607797749	2.0341951213442417	-0.40982792743797114	-0.21996476292194533	1.9476315758248435	-0.36859300669450906	-0.23376414037480753	1.8770391207339385	-0.32195801400620766	-0.19793269117148557	2.05608156867033	-0.5947229715768094	-0.18535004827703178	1.9765961872150661	-0.6470958502161632	-0.18680940007869137	1.8923164499948961	-0.6612193940788904
89	2.966666666666667	-0.19859323985089716	1.888459765646999	-0.5172961266577352	-0.2080065753943379	1.8850259858724465	-0.44904469257554047	-0.20325085660061018	1.7374090792364092	-0.41941919680422546	-0.20981610694399572	1.5991749772518187	-0.38061256816861394	-0.20637305569027128	1.6288868251163202	-0.38720568700827573	-0.20575722151463682	1.6363785049286097	-0.36092482427033706	-0.20695804299135107	1.5914910727436045	-0.3832562926379085	-0.18780640519131128	1.892956737546839	-0.5852878275268335	-0.18115802539038295	1.7388420002324703	-0.5732256909252793	-0.18172726593056004	1.5973070807522913	-0.5642247086141126	-0.20522317875022392	1.5499651740840241	-0.5470397790170238	-0.19660491432168847	1.5563991032563504	-0.5826315825254692	-0.17597123631807146	1.586590500828859	-0.5517296933303177	-0.20901810890769634	2.0449299051493526	-0.5031500483315569	-0.23691449424364922	2.1095145520493475	-0.4836292726561509	-0.21871113923142257	2.0371781655553063	-0.4140763847878497	-0.21621551956088184	1.9526186836441894	-0.36597072674067654	-0.21574228514186589	1.8753369718730253	-0.32011288369474994	-0.1967273182684755	2.0562583981985187	-0.6001570776999661	-0.1842212733609095	1.9772095930454066	-0.6529295919592271	-0.20687483356015643	1.8958957181186877	-0.653085417348266
90	3.0	-0.20188423417346746	1.8859592506753897	-0.517809843447507	-0.21146794124203272	1.882504079157294	-0.4499496260561698	-0.20559854269222655	1.7377044216925168	-0.41693713990276793	-0.20994667746351042	1.600231781945004	-0.3804230589638849	-0.20637305569027128	1.6288868251163202	-0.38720568700827573	-0.20575722151463682	1.6363785049286097	-0.36092482427033706	-0.2070277978118403	1.5924699426775686	-0.3829482858448739	-0.1912359121105447	1.8891804254763416	-0.5857385700902402	-0.1820437198182013	1.7388755455576146	-0.576466041046745	-0.1817294675277044	1.5973402794226115	-0.5642169961350187	-0.20482972188333917	1.5511300524619367	-0.5476244703092825	-0.19622837477294558	1.5576534476767512	-0.5832835622198853	-0.17815904305336358	1.5876670383587794	-0.5493065701924306	-0.20787850617083342	2.0461555247843375	-0.5084489849374982	-0.234865452665181	2.1116196679267443	-0.4938705021195784	-0.21682040683210665	2.0373709142824157	-0.4164799400624888	-0.20953498561848108	1.95427337157087	-0.36963355969249057	-0.20871472635825528	1.8795141803468454	-0.3064030305081015	-0.1954395030401605	2.0551090956044358	-0.6050096623833056	-0.18501686516138968	1.9759281963755029	-0.6559306957951021	-0.19375391087802793	1.8919175862129611	-0.6749126077926886
91	3.033333333333333	-0.1998642131842794	1.8886771594774059	-0.5207092572384828	-0.21328945620560058	1.8840875310673173	-0.45664028861673617	-0.20729997914748902	1.7385837298739366	-0.415125315067514	-0.20886011028990817	1.599970788621736	-0.3770238343280855	-0.20637305569027128	1.6288868251163202	-0.38720568700827573	-0.20575722151463682	1.6363785049286097	-0.36092482427033706	-0.2070909719827923	1.5931564165360168	-0.3826561225681721	-0.18976594022149823	1.8919090123275366	-0.5915519810760277	-0.1840076859951522	1.7373913711897986	-0.5742279009660893	-0.18198861991472612	1.595973258579717	-0.5636534105487055	-0.20585219179153258	1.5506163531255601	-0.5421095602408196	-0.19769079120456878	1.5562423576957936	-0.5772014743887723	-0.1764842976005575	1.5866630885527588	-0.5509758015572797	-0.20569344660533379	2.0475187932001324	-0.5190706093251184	-0.23287758149350873	2.1114898056805327	-0.503466347449404	-0.21584039071098254	2.0397941309911736	-0.4223785564572293	-0.21325533077783562	1.9562130145269032	-0.35748180110316563	-0.20959931712877045	1.8825789092541032	-0.29281487569512427	-0.1920531156912482	2.05638149671549	-0.6125358606383746	-0.18133419816421056	1.9763314992386916	-0.6631758492606062	-0.1873589138938254	1.8995475213768225	-0.6859037366865495
92	3.066666666666667	-0.20142531502070568	1.8855714383968325	-0.5177674023508207	-0.21200871472113011	1.8825310079514026	-0.4528695952546752	-0.20818402902573965	1.7371311189476197	-0.41823019785711707	-0.20899387488466037	1.6005574302828849	-0.3770821503076567	-0.20637305569027128	1.6288868251163202	-0.38720568700827573	-0.20575722151463682	1.6363785049286097	-0.36092482427033706	-0.20632102019537443	1.594573158978121	-0.3793607408346868	-0.18948057486794853	1.8902767404969034	-0.5911179298928527	-0.18259619577812228	1.7384255765385999	-0.5800170048302842	-0.18200369050370316	1.5958352098421957	-0.5637508444786027	-0.20484987078071112	1.550745352042364	-0.5476547643333625	-0.19866155518993878	1.5561978668545045	-0.5805761299240227	-0.1769717389487898	1.5840540503477822	-0.554657796267484	-0.20343295131369024	2.047530896358483	-0.529158359471376	-0.22984301411003477	2.1105890954777786	-0.510275774750615	-0.21384940728197896	2.0409117595017503	-0.43237827312116517	-0.21577608161611564	1.9603912174070777	-0.3586660421689702	-0.2216338931031827	1.8884180653530278	-0.2783964982279811	-0.1886926692050772	2.0553900812780626	-0.6196095538968532	-0.17601352050601984	1.9738292695055755	-0.6640257031668493	-0.17929280227227892	1.8991124690652708	-0.6894431469374195
